<svg xmlns="http://www.w3.org/2000/svg" xmlns:xlink="http://www.w3.org/1999/xlink" viewBox="175 586 1118 365" preserveAspectRatio="xMidYMid meet" version="1.0"><defs><g/><clipPath id="0e75f8ad18"><path d="M 180 591.625 L 532 591.625 L 532 898 L 180 898 Z M 180 591.625 " clip-rule="nonzero"/></clipPath><clipPath id="0075e7ba7d"><path d="M 256 822.65625 L 485.910156 822.65625 L 485.910156 946.636719 L 256 946.636719 Z M 256 822.65625 " clip-rule="nonzero"/></clipPath><clipPath id="c7f4c9e609"><path d="M 290 844.300781 L 895.5 844.300781 L 895.5 925.828125 L 290 925.828125 Z M 290 844.300781 " clip-rule="nonzero"/></clipPath><clipPath id="7098f67af7"><rect x="0" width="325" y="0" height="67"/></clipPath><clipPath id="aa12215fde"><rect x="0" width="313" y="0" height="67"/></clipPath></defs><g fill="#73c9b4" fill-opacity="1"><g transform="translate(500.508682, 816.821334)"><g><path d="M 21.84375 -14.59375 C 10.8125 -26.632812 5.296875 -41.394531 5.296875 -58.875 C 5.296875 -76.351562 10.8125 -91.148438 21.84375 -103.265625 C 32.882812 -115.378906 46.914062 -121.4375 63.9375 -121.4375 C 79.582031 -121.4375 92.460938 -116.53125 102.578125 -106.71875 L 102.578125 -117.984375 L 143.296875 -117.984375 L 143.296875 0 L 103.046875 0 L 103.046875 -13.34375 L 102.578125 -13.34375 C 92.460938 -2.144531 79.582031 3.453125 63.9375 3.453125 C 46.914062 3.453125 32.882812 -2.5625 21.84375 -14.59375 Z M 56.46875 -78.875 C 51.175781 -73.664062 48.53125 -67 48.53125 -58.875 C 48.53125 -50.75 51.054688 -44.117188 56.109375 -38.984375 C 61.171875 -33.847656 67.84375 -31.28125 76.125 -31.28125 C 84.101562 -31.28125 90.660156 -33.882812 95.796875 -39.09375 C 100.929688 -44.3125 103.5 -50.90625 103.5 -58.875 C 103.5 -67 100.851562 -73.664062 95.5625 -78.875 C 90.269531 -84.09375 83.789062 -86.703125 76.125 -86.703125 C 68.3125 -86.703125 61.757812 -84.09375 56.46875 -78.875 Z M 56.46875 -78.875 "/></g></g></g><g fill="#73c9b4" fill-opacity="1"><g transform="translate(640.344993, 816.821334)"><g><path d="M 21.84375 -14.71875 C 10.8125 -26.832031 5.296875 -41.628906 5.296875 -59.109375 C 5.296875 -76.585938 10.8125 -91.34375 21.84375 -103.375 C 32.882812 -115.414062 46.914062 -121.4375 63.9375 -121.4375 C 79.582031 -121.4375 92.460938 -115.84375 102.578125 -104.65625 L 103.046875 -104.65625 L 103.046875 -117.984375 L 143.296875 -117.984375 L 143.296875 59.796875 L 102.578125 59.796875 L 102.578125 -11.265625 C 92.460938 -1.453125 79.582031 3.453125 63.9375 3.453125 C 46.914062 3.453125 32.882812 -2.601562 21.84375 -14.71875 Z M 56.109375 -79 C 51.054688 -73.863281 48.53125 -67.234375 48.53125 -59.109375 C 48.53125 -50.984375 51.175781 -44.3125 56.46875 -39.09375 C 61.757812 -33.882812 68.3125 -31.28125 76.125 -31.28125 C 83.789062 -31.28125 90.269531 -33.882812 95.5625 -39.09375 C 100.851562 -44.3125 103.5 -50.984375 103.5 -59.109375 C 103.5 -67.078125 100.929688 -73.664062 95.796875 -78.875 C 90.660156 -84.09375 84.101562 -86.703125 76.125 -86.703125 C 67.84375 -86.703125 61.171875 -84.132812 56.109375 -79 Z M 56.109375 -79 "/></g></g></g><g fill="#73c9b4" fill-opacity="1"><g transform="translate(780.181303, 816.821334)"><g><path d="M 52.203125 -117.984375 L 52.203125 -61.875 C 52.203125 -50.21875 53.96875 -41.9375 57.5 -37.03125 C 61.03125 -32.125 67.007812 -29.671875 75.4375 -29.671875 C 83.875 -29.671875 89.851562 -32.125 93.375 -37.03125 C 96.90625 -41.9375 98.671875 -50.21875 98.671875 -61.875 L 98.671875 -117.984375 L 139.375 -117.984375 L 139.375 -51.984375 C 139.375 -32.359375 134.273438 -18.210938 124.078125 -9.546875 C 113.890625 -0.878906 97.675781 3.453125 75.4375 3.453125 C 53.207031 3.453125 36.992188 -0.878906 26.796875 -9.546875 C 16.597656 -18.210938 11.5 -32.359375 11.5 -51.984375 L 11.5 -117.984375 Z M 52.203125 -117.984375 "/></g></g></g><g fill="#73c9b4" fill-opacity="1"><g transform="translate(913.807772, 816.821334)"><g><path d="M 21.84375 -14.59375 C 10.8125 -26.632812 5.296875 -41.394531 5.296875 -58.875 C 5.296875 -76.351562 10.8125 -91.148438 21.84375 -103.265625 C 32.882812 -115.378906 46.914062 -121.4375 63.9375 -121.4375 C 79.582031 -121.4375 92.460938 -116.53125 102.578125 -106.71875 L 102.578125 -117.984375 L 143.296875 -117.984375 L 143.296875 0 L 103.046875 0 L 103.046875 -13.34375 L 102.578125 -13.34375 C 92.460938 -2.144531 79.582031 3.453125 63.9375 3.453125 C 46.914062 3.453125 32.882812 -2.5625 21.84375 -14.59375 Z M 56.46875 -78.875 C 51.175781 -73.664062 48.53125 -67 48.53125 -58.875 C 48.53125 -50.75 51.054688 -44.117188 56.109375 -38.984375 C 61.171875 -33.847656 67.84375 -31.28125 76.125 -31.28125 C 84.101562 -31.28125 90.660156 -33.882812 95.796875 -39.09375 C 100.929688 -44.3125 103.5 -50.90625 103.5 -58.875 C 103.5 -67 100.851562 -73.664062 95.5625 -78.875 C 90.269531 -84.09375 83.789062 -86.703125 76.125 -86.703125 C 68.3125 -86.703125 61.757812 -84.09375 56.46875 -78.875 Z M 56.46875 -78.875 "/></g></g></g><g fill="#73c9b4" fill-opacity="1"><g transform="translate(1052.034125, 816.821334)"><g><path d="M 20.703125 -117.984375 L 20.703125 -161.921875 L 61.40625 -161.921875 L 61.40625 -117.984375 L 86.25 -117.984375 L 86.25 -86.9375 L 61.40625 -86.9375 L 61.40625 -49.453125 C 61.40625 -38.566406 64.472656 -33.125 70.609375 -33.125 C 72.140625 -33.125 73.75 -33.425781 75.4375 -34.03125 C 77.125 -34.644531 78.425781 -35.257812 79.34375 -35.875 L 80.734375 -36.796875 L 90.84375 -3.90625 C 82.101562 1 72.140625 3.453125 60.953125 3.453125 C 53.285156 3.453125 46.691406 2.113281 41.171875 -0.5625 C 35.648438 -3.25 31.46875 -6.851562 28.625 -11.375 C 25.789062 -15.90625 23.757812 -20.660156 22.53125 -25.640625 C 21.3125 -30.628906 20.703125 -35.957031 20.703125 -41.625 L 20.703125 -86.9375 L 3.6875 -86.9375 L 3.6875 -117.984375 Z M 20.703125 -117.984375 "/></g></g></g><g fill="#73c9b4" fill-opacity="1"><g transform="translate(1125.631942, 816.821334)"><g><path d="M 17.703125 -183.765625 C 22.460938 -188.523438 28.140625 -190.90625 34.734375 -190.90625 C 41.328125 -190.90625 47 -188.523438 51.75 -183.765625 C 56.5 -179.015625 58.875 -173.34375 58.875 -166.75 C 58.875 -160.15625 56.5 -154.476562 51.75 -149.71875 C 47 -144.96875 41.328125 -142.59375 34.734375 -142.59375 C 28.140625 -142.59375 22.460938 -144.96875 17.703125 -149.71875 C 12.953125 -154.476562 10.578125 -160.15625 10.578125 -166.75 C 10.578125 -173.34375 12.953125 -179.015625 17.703125 -183.765625 Z M 13.796875 -117.984375 L 13.796875 0 L 54.515625 0 L 54.515625 -117.984375 Z M 13.796875 -117.984375 "/></g></g></g><g fill="#73c9b4" fill-opacity="1"><g transform="translate(1177.840297, 816.821334)"><g><path d="M 76.59375 -88.09375 C 68.925781 -88.09375 62.332031 -85.253906 56.8125 -79.578125 C 51.289062 -73.898438 48.53125 -67.078125 48.53125 -59.109375 C 48.53125 -50.984375 51.289062 -44.082031 56.8125 -38.40625 C 62.332031 -32.738281 68.925781 -29.90625 76.59375 -29.90625 C 80.269531 -29.90625 83.753906 -30.363281 87.046875 -31.28125 C 90.347656 -32.195312 92.765625 -33.117188 94.296875 -34.046875 L 96.375 -35.421875 L 110.171875 -7.125 C 109.097656 -6.363281 107.601562 -5.40625 105.6875 -4.25 C 103.769531 -3.101562 99.398438 -1.535156 92.578125 0.453125 C 85.753906 2.453125 78.429688 3.453125 70.609375 3.453125 C 53.285156 3.453125 38.066406 -2.640625 24.953125 -14.828125 C 11.847656 -27.023438 5.296875 -41.632812 5.296875 -58.65625 C 5.296875 -75.820312 11.847656 -90.578125 24.953125 -102.921875 C 38.066406 -115.265625 53.285156 -121.4375 70.609375 -121.4375 C 78.429688 -121.4375 85.640625 -120.515625 92.234375 -118.671875 C 98.828125 -116.835938 103.503906 -115 106.265625 -113.15625 L 110.171875 -110.40625 L 96.375 -82.5625 C 91.3125 -86.25 84.71875 -88.09375 76.59375 -88.09375 Z M 76.59375 -88.09375 "/></g></g></g><g clip-path="url(#0e75f8ad18)"><path fill="#73c9b4" d="M 400.113281 591.777344 C 356.371094 591.777344 316.390625 607.867188 285.753906 634.441406 C 254.796875 646.363281 199.058594 671.851562 180 706.71875 C 180 706.71875 213.328125 688.523438 246.847656 682.6875 C 233.25 707.539062 225.511719 736.054688 225.511719 766.378906 C 225.511719 818.859375 248.671875 865.933594 285.328125 897.9375 C 258.53125 867.246094 242.289062 827.097656 242.289062 783.152344 C 242.289062 686.726562 320.457031 608.554688 416.886719 608.554688 C 460.832031 608.554688 500.980469 624.796875 531.671875 651.59375 C 499.664062 614.941406 452.59375 591.777344 400.113281 591.777344 " fill-opacity="1" fill-rule="nonzero"/></g><path fill="#73c9b4" d="M 453.507812 654.585938 C 444.738281 654.585938 437.636719 647.480469 437.636719 638.714844 C 437.636719 637.132812 437.867188 635.601562 438.300781 634.160156 C 431.753906 636.121094 426.980469 642.183594 426.980469 649.367188 C 426.980469 658.132812 434.085938 665.242188 442.851562 665.242188 C 450.035156 665.242188 456.101562 660.464844 458.058594 653.917969 C 456.617188 654.351562 455.089844 654.585938 453.507812 654.585938 " fill-opacity="1" fill-rule="nonzero"/><path fill="#73c9b4" d="M 284.617188 697.015625 C 284.617188 697.015625 285.355469 697.789062 286.742188 699.234375 C 287.40625 699.949219 288.347656 700.878906 289.4375 701.960938 C 290.523438 703.0625 291.789062 704.242188 293.203125 705.566406 C 296.0625 708.1875 299.582031 711.324219 303.863281 714.621094 C 308.132812 717.925781 313.113281 721.441406 318.800781 724.875 C 324.488281 728.296875 330.894531 731.601562 337.910156 734.535156 C 338.78125 734.917969 339.679688 735.246094 340.574219 735.597656 C 341.023438 735.773438 341.472656 735.949219 341.925781 736.125 L 342.601562 736.390625 L 343.011719 736.546875 L 343.347656 736.660156 C 345.140625 737.28125 346.867188 737.929688 348.851562 738.53125 C 352.722656 739.796875 356.613281 740.792969 360.660156 741.714844 C 364.699219 742.613281 368.851562 743.292969 373.066406 743.847656 C 377.289062 744.332031 381.578125 744.660156 385.910156 744.761719 C 390.242188 744.824219 394.609375 744.71875 398.972656 744.351562 C 403.332031 743.949219 407.691406 743.371094 411.996094 742.515625 L 412.402344 742.441406 L 412.65625 742.390625 L 412.851562 742.347656 L 413.632812 742.171875 L 415.199219 741.824219 L 416.761719 741.472656 L 418.371094 741.054688 C 419.4375 740.769531 420.527344 740.515625 421.570312 740.203125 L 424.703125 739.265625 C 428.847656 737.9375 432.914062 736.460938 436.855469 734.789062 C 444.738281 731.433594 452.167969 727.464844 459.027344 723.164062 C 465.902344 718.882812 472.226562 714.246094 477.980469 709.648438 C 483.757812 705 488.96875 700.386719 493.667969 695.992188 C 503.042969 687.1875 510.367188 679.390625 515.484375 673.9375 C 520.5625 668.445312 523.464844 665.300781 523.464844 665.300781 C 523.464844 665.300781 520.425781 668.308594 515.109375 673.570312 C 509.753906 678.785156 502.09375 686.234375 492.390625 694.566406 C 487.535156 698.714844 482.140625 703.074219 476.269531 707.378906 C 470.351562 711.6875 463.960938 715.941406 457.042969 719.828125 C 450.152344 723.734375 442.757812 727.261719 435.015625 730.152344 C 431.140625 731.59375 427.171875 732.835938 423.15625 733.925781 L 420.128906 734.683594 C 419.117188 734.941406 418.117188 735.125 417.109375 735.347656 L 415.601562 735.671875 L 414.027344 735.949219 L 412.449219 736.226562 L 411.660156 736.367188 L 411.460938 736.402344 L 411.363281 736.417969 C 411.441406 736.402344 411.328125 736.421875 411.324219 736.421875 L 410.9375 736.476562 C 406.824219 737.105469 402.679688 737.464844 398.550781 737.65625 C 394.417969 737.820312 390.296875 737.734375 386.222656 737.492188 C 382.148438 737.210938 378.128906 736.722656 374.183594 736.085938 C 370.25 735.386719 366.386719 734.582031 362.644531 733.566406 C 361.703125 733.34375 360.78125 733.039062 359.859375 732.777344 C 358.9375 732.503906 358.015625 732.257812 357.113281 731.945312 C 356.210938 731.652344 355.3125 731.355469 354.417969 731.0625 C 353.527344 730.765625 352.675781 730.433594 351.816406 730.125 C 350.128906 729.539062 348.3125 728.769531 346.574219 728.082031 L 346.246094 727.949219 C 346.203125 727.929688 346.324219 727.976562 346.238281 727.941406 L 346.160156 727.910156 L 346.003906 727.839844 L 345.382812 727.566406 L 344.144531 727.019531 C 343.328125 726.652344 342.503906 726.308594 341.707031 725.914062 C 335.296875 722.890625 329.472656 719.542969 324.324219 716.121094 C 319.183594 712.691406 314.699219 709.21875 310.875 705.972656 C 307.039062 702.734375 303.902344 699.675781 301.363281 697.128906 C 300.105469 695.84375 298.980469 694.691406 298.074219 693.679688 C 297.144531 692.675781 296.359375 691.835938 295.691406 691.054688 C 294.371094 689.542969 293.671875 688.738281 293.671875 688.738281 L 284.617188 697.015625 " fill-opacity="1" fill-rule="nonzero"/><g clip-path="url(#0075e7ba7d)"><path fill="#4fade3" d="M 256.195312 822.664062 C 256.195312 822.664062 256.664062 823.683594 257.539062 825.605469 C 258.417969 827.511719 259.578125 830.414062 261.382812 833.855469 C 261.8125 834.722656 262.269531 835.636719 262.746094 836.59375 C 262.980469 837.070312 263.222656 837.558594 263.46875 838.058594 C 263.589844 838.308594 263.714844 838.558594 263.839844 838.8125 C 263.980469 839.066406 264.125 839.320312 264.265625 839.570312 C 265.421875 841.609375 266.625 843.820312 267.925781 846.167969 C 269.328125 848.457031 270.820312 850.886719 272.390625 853.449219 C 274.042969 855.953125 275.84375 858.542969 277.675781 861.253906 C 278.660156 862.5625 279.667969 863.898438 280.691406 865.261719 C 281.730469 866.609375 282.695312 868.042969 283.863281 869.367188 C 286.144531 872.054688 288.332031 874.949219 290.921875 877.640625 C 291.546875 878.328125 292.179688 879.019531 292.816406 879.71875 C 293.457031 880.410156 294.050781 881.152344 294.738281 881.8125 C 296.085938 883.164062 297.449219 884.53125 298.828125 885.910156 C 300.171875 887.324219 301.660156 888.617188 303.121094 889.964844 C 303.851562 890.636719 304.585938 891.3125 305.324219 891.988281 C 306.0625 892.664062 306.785156 893.363281 307.585938 893.984375 C 313.707031 899.257812 320.425781 904.1875 327.460938 908.84375 C 331.074219 911.011719 334.660156 913.296875 338.449219 915.25 C 340.324219 916.253906 342.164062 917.335938 344.121094 918.195312 C 345.988281 919.082031 347.859375 919.96875 349.730469 920.859375 C 353.839844 922.523438 358.0625 924.425781 361.914062 925.640625 C 365.773438 927.082031 369.921875 928.21875 373.949219 929.441406 C 382.125 931.511719 390.285156 933.195312 398.304688 934.183594 C 399.300781 934.355469 400.304688 934.421875 401.300781 934.515625 C 402.300781 934.609375 403.292969 934.699219 404.28125 934.792969 C 406.257812 934.96875 408.21875 935.1875 410.164062 935.246094 C 412.117188 935.339844 414.042969 935.429688 415.945312 935.523438 C 417.851562 935.582031 419.734375 935.519531 421.601562 935.550781 C 425.335938 935.660156 428.949219 935.34375 432.46875 935.226562 C 434.234375 935.199219 435.945312 934.953125 437.644531 934.820312 C 439.339844 934.664062 441.003906 934.511719 442.636719 934.363281 C 445.875 933.902344 449 933.496094 451.964844 933.035156 C 454.921875 932.484375 457.726562 931.957031 460.363281 931.460938 C 462.972656 930.851562 465.421875 930.253906 467.707031 929.746094 C 467.992188 929.683594 468.277344 929.617188 468.554688 929.550781 C 468.828125 929.476562 469.101562 929.398438 469.367188 929.320312 C 469.90625 929.164062 470.433594 929.015625 470.949219 928.867188 C 471.980469 928.578125 472.96875 928.300781 473.902344 928.039062 C 477.6875 927.054688 480.5625 925.988281 482.574219 925.359375 C 484.585938 924.722656 485.660156 924.378906 485.660156 924.378906 C 485.660156 924.378906 484.703125 924.96875 482.90625 926.074219 C 482 926.617188 480.882812 927.289062 479.566406 928.078125 C 478.898438 928.460938 478.210938 928.933594 477.421875 929.320312 C 476.636719 929.722656 475.804688 930.148438 474.925781 930.597656 C 474.042969 931.046875 473.109375 931.515625 472.132812 932.011719 C 471.640625 932.257812 471.140625 932.507812 470.625 932.765625 C 470.367188 932.890625 470.109375 933.019531 469.84375 933.152344 C 469.574219 933.269531 469.304688 933.386719 469.03125 933.507812 C 466.839844 934.460938 464.441406 935.449219 461.882812 936.535156 C 459.289062 937.519531 456.484375 938.441406 453.53125 939.484375 C 452.054688 939.992188 450.496094 940.367188 448.917969 940.824219 C 447.335938 941.269531 445.714844 941.71875 444.0625 942.179688 C 442.378906 942.542969 440.664062 942.914062 438.917969 943.289062 C 437.164062 943.640625 435.386719 944.101562 433.546875 944.347656 C 429.875 944.902344 426.074219 945.5625 422.125 945.855469 C 420.15625 946.035156 418.15625 946.253906 416.121094 946.355469 C 414.089844 946.425781 412.03125 946.492188 409.949219 946.558594 C 408.90625 946.578125 407.855469 946.671875 406.804688 946.621094 C 405.75 946.59375 404.691406 946.5625 403.625 946.535156 C 402.5625 946.503906 401.492188 946.472656 400.417969 946.441406 C 399.34375 946.410156 398.261719 946.398438 397.179688 946.289062 C 395.019531 946.105469 392.832031 945.941406 390.636719 945.734375 L 388.984375 945.578125 L 387.335938 945.339844 C 386.238281 945.179688 385.132812 945.019531 384.023438 944.859375 C 379.574219 944.328125 375.152344 943.261719 370.675781 942.332031 C 361.914062 940.214844 352.496094 936.949219 344.539062 933.539062 C 342.375 932.5 340.21875 931.460938 338.058594 930.421875 C 335.9375 929.457031 333.9375 928.265625 331.902344 927.152344 C 327.78125 925.003906 323.984375 922.355469 320.121094 919.90625 C 316.417969 917.214844 312.667969 914.648438 309.285156 911.710938 C 308.417969 910.996094 307.558594 910.285156 306.703125 909.578125 L 305.421875 908.519531 L 304.195312 907.398438 C 302.582031 905.894531 300.980469 904.402344 299.390625 902.917969 C 298.582031 902.195312 297.851562 901.398438 297.101562 900.625 C 296.359375 899.851562 295.617188 899.078125 294.878906 898.3125 C 294.144531 897.542969 293.410156 896.773438 292.683594 896.015625 C 291.941406 895.265625 291.304688 894.425781 290.617188 893.644531 C 289.269531 892.054688 287.9375 890.484375 286.621094 888.933594 C 285.332031 887.359375 284.15625 885.726562 282.964844 884.144531 C 280.527344 881.023438 278.464844 877.765625 276.414062 874.675781 C 275.359375 873.148438 274.507812 871.519531 273.589844 869.984375 C 272.695312 868.4375 271.816406 866.917969 270.957031 865.429688 C 270.1875 863.894531 269.4375 862.390625 268.699219 860.917969 C 267.976562 859.445312 267.210938 858.039062 266.59375 856.601562 C 265.386719 853.714844 264.179688 851.019531 263.171875 848.4375 C 262.253906 845.8125 261.375 843.375 260.613281 841.109375 C 260.515625 840.828125 260.421875 840.542969 260.328125 840.269531 C 260.246094 839.984375 260.167969 839.703125 260.085938 839.425781 C 259.929688 838.871094 259.777344 838.328125 259.628906 837.792969 C 259.339844 836.734375 259.058594 835.726562 258.796875 834.765625 C 258.539062 833.808594 258.292969 832.902344 258.0625 832.054688 C 257.820312 831.207031 257.710938 830.394531 257.546875 829.644531 C 257.25 828.148438 257 826.875 256.792969 825.839844 C 256.402344 823.765625 256.195312 822.664062 256.195312 822.664062 " fill-opacity="1" fill-rule="nonzero"/></g><g clip-path="url(#c7f4c9e609)"><path fill="#4fade3" d="M 290.324219 853.75 C 290.324219 853.75 290.75 854.253906 291.578125 855.238281 C 292.417969 856.207031 293.621094 857.699219 295.265625 859.554688 C 298.550781 863.261719 303.578125 868.519531 310.511719 874.558594 C 311.382812 875.304688 312.28125 876.070312 313.203125 876.855469 C 314.113281 877.648438 315.117188 878.378906 316.105469 879.167969 C 317.109375 879.945312 318.121094 880.753906 319.175781 881.550781 C 320.253906 882.320312 321.351562 883.105469 322.476562 883.910156 C 323.039062 884.308594 323.601562 884.714844 324.171875 885.121094 C 324.753906 885.523438 325.355469 885.898438 325.953125 886.292969 C 327.148438 887.082031 328.367188 887.882812 329.609375 888.699219 C 330.871094 889.488281 332.175781 890.25 333.488281 891.042969 C 334.148438 891.4375 334.808594 891.835938 335.480469 892.238281 C 336.164062 892.613281 336.859375 892.988281 337.554688 893.363281 C 343.082031 896.46875 349.183594 899.355469 355.765625 901.953125 C 362.351562 904.539062 369.410156 906.894531 376.941406 908.59375 C 384.59375 910.347656 392.371094 911.566406 400.683594 912.125 C 408.953125 912.675781 417.539062 912.621094 426.273438 911.738281 C 435.003906 910.855469 443.898438 909.269531 452.734375 906.769531 C 457.15625 905.539062 461.542969 904.039062 465.917969 902.40625 C 468.105469 901.582031 470.25 900.628906 472.429688 899.742188 C 473.503906 899.261719 474.566406 898.746094 475.636719 898.25 L 477.242188 897.496094 L 478.046875 897.117188 L 478.367188 896.96875 L 478.78125 896.753906 C 479.886719 896.1875 480.996094 895.621094 482.105469 895.054688 C 483.140625 894.488281 484.175781 893.921875 485.214844 893.355469 C 486.246094 892.800781 487.308594 892.15625 488.363281 891.5625 C 489.414062 890.964844 490.46875 890.339844 491.523438 889.707031 C 495.738281 887.191406 499.945312 884.519531 504.179688 881.75 C 512.652344 876.207031 521.257812 870.320312 530.441406 864.808594 C 535.039062 862.058594 539.777344 859.390625 544.683594 856.96875 C 545.945312 856.339844 547.210938 855.71875 548.46875 855.164062 C 549.730469 854.597656 550.972656 853.992188 552.269531 853.476562 C 553.558594 852.949219 554.832031 852.394531 556.140625 851.898438 L 560.074219 850.441406 C 570.660156 846.765625 582.054688 844.359375 593.816406 844.550781 C 599.683594 844.660156 605.621094 845.460938 611.355469 847.085938 L 611.894531 847.222656 C 612.078125 847.273438 611.875 847.207031 612.367188 847.355469 L 612.601562 847.433594 L 615.4375 848.34375 C 615.730469 848.429688 616.125 848.589844 616.480469 848.722656 L 617.570312 849.136719 L 619.742188 849.980469 C 621.074219 850.582031 622.429688 851.148438 623.734375 851.796875 C 625.019531 852.464844 626.355469 853.074219 627.59375 853.800781 C 632.648438 856.59375 637.316406 859.816406 641.671875 863.226562 C 646.035156 866.632812 650.113281 870.210938 654.039062 873.796875 C 657.960938 877.382812 661.742188 880.976562 665.484375 884.453125 C 669.21875 887.949219 672.917969 891.328125 676.675781 894.46875 C 684.179688 900.75 691.988281 906.042969 700.273438 909.28125 C 701.316406 909.648438 702.359375 910.015625 703.402344 910.382812 C 704.390625 910.667969 705.375 910.957031 706.363281 911.242188 C 707.566406 911.503906 708.765625 911.765625 709.964844 912.027344 C 710.28125 912.105469 710.507812 912.121094 710.769531 912.160156 L 711.527344 912.265625 L 713.042969 912.484375 L 713.800781 912.597656 L 714.621094 912.65625 L 716.253906 912.777344 C 716.800781 912.8125 717.335938 912.882812 717.886719 912.886719 L 719.527344 912.902344 L 721.167969 912.925781 C 721.714844 912.9375 722.261719 912.882812 722.808594 912.867188 L 724.453125 912.792969 C 725 912.777344 725.546875 912.742188 726.09375 912.671875 C 730.46875 912.339844 734.820312 911.488281 739.085938 910.425781 C 743.351562 909.351562 747.542969 908 751.632812 906.449219 C 755.71875 904.902344 759.722656 903.21875 763.609375 901.359375 C 765.554688 900.449219 767.488281 899.488281 769.367188 898.535156 C 770.339844 898.039062 771.300781 897.542969 772.261719 897.050781 C 773.203125 896.5625 774.140625 896.074219 775.074219 895.585938 C 782.582031 891.65625 789.84375 887.585938 797.042969 883.964844 C 804.226562 880.332031 811.335938 877.082031 818.359375 874.582031 C 820.097656 873.925781 821.875 873.410156 823.59375 872.832031 C 825.351562 872.335938 827.066406 871.8125 828.785156 871.386719 C 829.648438 871.179688 830.503906 870.972656 831.355469 870.769531 C 831.792969 870.667969 832.160156 870.566406 832.660156 870.46875 C 833.074219 870.386719 833.480469 870.304688 833.890625 870.222656 C 834.679688 870.050781 835.605469 869.917969 836.445312 869.769531 C 837.300781 869.632812 838.132812 869.535156 838.964844 869.414062 C 852.3125 867.761719 864.101562 869.742188 872.964844 873.183594 C 877.417969 874.886719 881.140625 876.992188 884.136719 879.125 C 887.121094 881.273438 889.394531 883.425781 891.085938 885.28125 C 891.949219 886.199219 892.625 887.082031 893.222656 887.820312 C 893.78125 888.597656 894.257812 889.238281 894.617188 889.773438 C 895.3125 890.855469 895.671875 891.414062 895.671875 891.414062 C 895.671875 891.414062 895.25 890.90625 894.433594 889.914062 C 894.015625 889.429688 893.46875 888.847656 892.835938 888.152344 C 892.152344 887.496094 891.40625 886.707031 890.472656 885.902344 C 888.636719 884.265625 886.222656 882.421875 883.152344 880.664062 C 880.066406 878.945312 876.347656 877.285156 872.003906 876.039062 C 863.34375 873.535156 852.113281 872.75 839.90625 875.195312 C 839.148438 875.363281 838.371094 875.515625 837.621094 875.703125 C 836.859375 875.898438 836.152344 876.050781 835.328125 876.289062 C 834.925781 876.398438 834.523438 876.507812 834.117188 876.617188 C 833.796875 876.707031 833.359375 876.855469 832.984375 876.96875 C 832.203125 877.214844 831.417969 877.464844 830.625 877.710938 C 829.046875 878.222656 827.46875 878.832031 825.863281 879.410156 C 824.277344 880.070312 822.652344 880.664062 821.050781 881.402344 C 820.246094 881.761719 819.4375 882.121094 818.621094 882.488281 C 817.808594 882.855469 817 883.257812 816.183594 883.640625 C 814.542969 884.402344 812.910156 885.261719 811.257812 886.105469 C 807.960938 887.839844 804.617188 889.683594 801.230469 891.683594 C 794.449219 895.628906 787.46875 900.007812 780.019531 904.453125 C 779.082031 905.011719 778.140625 905.570312 777.191406 906.128906 C 776.253906 906.667969 775.3125 907.207031 774.367188 907.75 C 772.410156 908.855469 770.460938 909.945312 768.441406 911.003906 C 764.4375 913.152344 760.238281 915.15625 755.890625 917.03125 C 751.550781 918.925781 746.992188 920.585938 742.25 921.972656 C 737.503906 923.347656 732.566406 924.511719 727.421875 925.117188 C 726.785156 925.21875 726.140625 925.28125 725.492188 925.332031 L 723.539062 925.492188 C 722.886719 925.542969 722.238281 925.625 721.578125 925.636719 L 719.601562 925.683594 L 717.613281 925.722656 C 716.949219 925.734375 716.28125 925.675781 715.613281 925.65625 L 713.605469 925.5625 L 712.597656 925.511719 L 711.546875 925.394531 L 709.425781 925.148438 L 708.367188 925.015625 C 708.019531 924.972656 707.632812 924.9375 707.355469 924.875 C 706.152344 924.648438 704.941406 924.421875 703.734375 924.195312 L 703.503906 924.152344 C 703.484375 924.152344 702.898438 924.019531 703.027344 924.046875 L 702.53125 923.914062 L 701.535156 923.660156 L 699.542969 923.140625 C 698.230469 922.746094 696.929688 922.304688 695.621094 921.886719 C 690.4375 920.042969 685.496094 917.609375 680.867188 914.777344 C 676.226562 911.949219 671.871094 908.769531 667.710938 905.441406 C 663.550781 902.113281 659.582031 898.632812 655.691406 895.140625 C 651.816406 891.632812 648.019531 888.113281 644.195312 884.710938 C 636.566406 877.910156 628.757812 871.589844 620.363281 866.96875 C 611.976562 862.3125 602.992188 859.808594 593.5 859.695312 C 584.039062 859.492188 574.34375 861.417969 565.003906 864.621094 L 561.519531 865.898438 C 560.355469 866.328125 559.214844 866.828125 558.0625 867.28125 C 556.898438 867.726562 555.769531 868.265625 554.628906 868.753906 C 553.472656 869.25 552.371094 869.777344 551.277344 870.304688 C 546.734375 872.46875 542.304688 874.886719 537.917969 877.4375 C 533.53125 879.996094 529.195312 882.707031 524.855469 885.433594 C 520.476562 888.195312 516.117188 890.9375 511.789062 893.667969 C 507.40625 896.402344 502.972656 899.089844 498.464844 901.648438 C 496.214844 902.949219 493.945312 904.15625 491.617188 905.371094 C 490.4375 905.96875 489.261719 906.566406 488.089844 907.160156 C 486.964844 907.695312 485.84375 908.230469 484.71875 908.765625 L 484.300781 908.96875 C 484.066406 909.078125 484.105469 909.050781 483.996094 909.101562 L 483.773438 909.199219 L 481.101562 910.359375 C 479.914062 910.871094 478.738281 911.394531 477.550781 911.886719 C 475.140625 912.789062 472.769531 913.753906 470.363281 914.582031 C 469.15625 914.980469 467.953125 915.382812 466.75 915.777344 C 465.554688 916.183594 464.355469 916.582031 463.136719 916.902344 C 461.925781 917.238281 460.71875 917.574219 459.511719 917.914062 C 458.90625 918.074219 458.308594 918.257812 457.703125 918.40625 L 455.882812 918.832031 C 446.210938 921.152344 436.5625 922.574219 427.132812 923.066406 C 417.710938 923.566406 408.511719 923.257812 399.726562 922.183594 C 390.976562 921.121094 382.417969 919.335938 374.699219 917.039062 C 366.84375 914.734375 359.546875 911.835938 352.855469 908.644531 C 346.171875 905.429688 340.011719 902.023438 334.542969 898.351562 C 333.855469 897.902344 333.171875 897.460938 332.492188 897.019531 C 331.832031 896.550781 331.175781 896.085938 330.527344 895.625 C 329.234375 894.699219 327.953125 893.808594 326.71875 892.898438 C 325.507812 891.957031 324.320312 891.03125 323.152344 890.121094 C 322.574219 889.660156 321.996094 889.222656 321.4375 888.761719 C 320.886719 888.289062 320.34375 887.820312 319.804688 887.359375 C 318.726562 886.4375 317.675781 885.53125 316.644531 884.648438 C 315.636719 883.734375 314.679688 882.816406 313.726562 881.933594 C 312.789062 881.039062 311.835938 880.207031 310.976562 879.316406 C 310.117188 878.433594 309.273438 877.574219 308.449219 876.738281 C 306.78125 875.09375 305.332031 873.410156 303.9375 871.867188 C 303.246094 871.085938 302.558594 870.351562 301.949219 869.59375 C 301.332031 868.835938 300.742188 868.101562 300.167969 867.398438 C 297.839844 864.617188 296.074219 862.074219 294.578125 860.082031 C 293.816406 859.089844 293.25 858.152344 292.714844 857.367188 C 292.195312 856.574219 291.75 855.910156 291.394531 855.375 C 290.6875 854.300781 290.324219 853.75 290.324219 853.75 " fill-opacity="1" fill-rule="nonzero"/></g><g transform="matrix(1, 0, 0, 1, 587, 608)"><g clip-path="url(#7098f67af7)"><g fill="#73c9b4" fill-opacity="1"><g transform="translate(1.567668, 48.816877)"><g><path d="M 4.59375 0 L 4.59375 -31.515625 L 8.5625 -31.515625 L 8.5625 0 Z M 4.59375 0 "/></g></g></g><g fill="#73c9b4" fill-opacity="1"><g transform="translate(14.707773, 48.816877)"><g><path d="M 4.59375 0 L 4.59375 -31.515625 L 8.328125 -31.515625 L 25.765625 -6.84375 L 25.765625 -31.515625 L 29.625 -31.515625 L 29.625 0 L 25.9375 0 L 8.515625 -24.671875 L 8.515625 0 Z M 4.59375 0 "/></g></g></g><g fill="#73c9b4" fill-opacity="1"><g transform="translate(48.908026, 48.816877)"><g><path d="M 4.59375 0 L 4.59375 -31.515625 L 15.484375 -31.515625 C 18.734375 -31.515625 21.566406 -30.847656 23.984375 -29.515625 C 26.398438 -28.179688 28.28125 -26.332031 29.625 -23.96875 C 30.976562 -21.613281 31.65625 -18.878906 31.65625 -15.765625 C 31.65625 -12.671875 30.976562 -9.9375 29.625 -7.5625 C 28.28125 -5.1875 26.398438 -3.332031 23.984375 -2 C 21.566406 -0.664062 18.734375 0 15.484375 0 Z M 8.5625 -3.78125 L 15.484375 -3.78125 C 17.890625 -3.78125 20 -4.28125 21.8125 -5.28125 C 23.632812 -6.289062 25.054688 -7.695312 26.078125 -9.5 C 27.097656 -11.300781 27.609375 -13.390625 27.609375 -15.765625 C 27.609375 -18.160156 27.085938 -20.25 26.046875 -22.03125 C 25.015625 -23.820312 23.582031 -25.21875 21.75 -26.21875 C 19.914062 -27.226562 17.769531 -27.734375 15.3125 -27.734375 L 8.5625 -27.734375 Z M 8.5625 -3.78125 "/></g></g></g><g fill="#73c9b4" fill-opacity="1"><g transform="translate(83.153278, 48.816877)"><g><path d="M 4.59375 0 L 4.59375 -31.515625 L 23.734375 -31.515625 L 23.734375 -27.828125 L 8.5625 -27.828125 L 8.5625 -17.875 L 22.609375 -17.875 L 22.609375 -14.234375 L 8.5625 -14.234375 L 8.5625 -3.6875 L 24.234375 -3.6875 L 24.234375 0 Z M 4.59375 0 "/></g></g></g><g fill="#73c9b4" fill-opacity="1"><g transform="translate(110.288453, 48.816877)"><g><path d="M 4.59375 0 L 4.59375 -31.515625 L 15.265625 -31.515625 C 17.640625 -31.515625 19.703125 -31.078125 21.453125 -30.203125 C 23.210938 -29.335938 24.570312 -28.117188 25.53125 -26.546875 C 26.488281 -24.972656 26.96875 -23.101562 26.96875 -20.9375 C 26.96875 -18.78125 26.488281 -16.910156 25.53125 -15.328125 C 24.570312 -13.753906 23.210938 -12.53125 21.453125 -11.65625 C 19.703125 -10.789062 17.640625 -10.359375 15.265625 -10.359375 L 8.5625 -10.359375 L 8.5625 0 Z M 8.5625 -14.046875 L 15.171875 -14.046875 C 20.335938 -14.046875 22.921875 -16.328125 22.921875 -20.890625 C 22.921875 -25.453125 20.335938 -27.734375 15.171875 -27.734375 L 8.5625 -27.734375 Z M 8.5625 -14.046875 "/></g></g></g><g fill="#73c9b4" fill-opacity="1"><g transform="translate(139.043654, 48.816877)"><g><path d="M 4.59375 0 L 4.59375 -31.515625 L 23.734375 -31.515625 L 23.734375 -27.828125 L 8.5625 -27.828125 L 8.5625 -17.875 L 22.609375 -17.875 L 22.609375 -14.234375 L 8.5625 -14.234375 L 8.5625 -3.6875 L 24.234375 -3.6875 L 24.234375 0 Z M 4.59375 0 "/></g></g></g><g fill="#73c9b4" fill-opacity="1"><g transform="translate(166.178829, 48.816877)"><g><path d="M 4.59375 0 L 4.59375 -31.515625 L 8.328125 -31.515625 L 25.765625 -6.84375 L 25.765625 -31.515625 L 29.625 -31.515625 L 29.625 0 L 25.9375 0 L 8.515625 -24.671875 L 8.515625 0 Z M 4.59375 0 "/></g></g></g><g fill="#73c9b4" fill-opacity="1"><g transform="translate(200.379082, 48.816877)"><g><path d="M 4.59375 0 L 4.59375 -31.515625 L 15.484375 -31.515625 C 18.734375 -31.515625 21.566406 -30.847656 23.984375 -29.515625 C 26.398438 -28.179688 28.28125 -26.332031 29.625 -23.96875 C 30.976562 -21.613281 31.65625 -18.878906 31.65625 -15.765625 C 31.65625 -12.671875 30.976562 -9.9375 29.625 -7.5625 C 28.28125 -5.1875 26.398438 -3.332031 23.984375 -2 C 21.566406 -0.664062 18.734375 0 15.484375 0 Z M 8.5625 -3.78125 L 15.484375 -3.78125 C 17.890625 -3.78125 20 -4.28125 21.8125 -5.28125 C 23.632812 -6.289062 25.054688 -7.695312 26.078125 -9.5 C 27.097656 -11.300781 27.609375 -13.390625 27.609375 -15.765625 C 27.609375 -18.160156 27.085938 -20.25 26.046875 -22.03125 C 25.015625 -23.820312 23.582031 -25.21875 21.75 -26.21875 C 19.914062 -27.226562 17.769531 -27.734375 15.3125 -27.734375 L 8.5625 -27.734375 Z M 8.5625 -3.78125 "/></g></g></g><g fill="#73c9b4" fill-opacity="1"><g transform="translate(234.624333, 48.816877)"><g><path d="M 4.59375 0 L 4.59375 -31.515625 L 23.734375 -31.515625 L 23.734375 -27.828125 L 8.5625 -27.828125 L 8.5625 -17.875 L 22.609375 -17.875 L 22.609375 -14.234375 L 8.5625 -14.234375 L 8.5625 -3.6875 L 24.234375 -3.6875 L 24.234375 0 Z M 4.59375 0 "/></g></g></g><g fill="#73c9b4" fill-opacity="1"><g transform="translate(261.759509, 48.816877)"><g><path d="M 4.59375 0 L 4.59375 -31.515625 L 8.328125 -31.515625 L 25.765625 -6.84375 L 25.765625 -31.515625 L 29.625 -31.515625 L 29.625 0 L 25.9375 0 L 8.515625 -24.671875 L 8.515625 0 Z M 4.59375 0 "/></g></g></g><g fill="#73c9b4" fill-opacity="1"><g transform="translate(295.959762, 48.816877)"><g><path d="M 12.203125 0 L 12.203125 -27.734375 L 1.53125 -27.734375 L 1.53125 -31.515625 L 26.796875 -31.515625 L 26.796875 -27.734375 L 16.171875 -27.734375 L 16.171875 0 Z M 12.203125 0 "/></g></g></g></g></g><g transform="matrix(1, 0, 0, 1, 934, 857)"><g clip-path="url(#aa12215fde)"><g fill="#3675c2" fill-opacity="1"><g transform="translate(2.514639, 48.571289)"><g><path d="M 4.59375 0 L 4.59375 -31.515625 L 8.5625 -31.515625 L 8.5625 0 Z M 4.59375 0 "/></g></g></g><g fill="#3675c2" fill-opacity="1"><g transform="translate(15.654744, 48.571289)"><g><path d="M 4.59375 0 L 4.59375 -31.515625 L 8.28125 -31.515625 L 20.671875 -12.828125 L 32.96875 -31.515625 L 36.65625 -31.515625 L 36.65625 0 L 32.6875 0 L 32.6875 -24.09375 L 22.25 -8.375 L 19 -8.375 L 8.5625 -24.140625 L 8.5625 0 Z M 4.59375 0 "/></g></g></g><g fill="#3675c2" fill-opacity="1"><g transform="translate(56.875032, 48.571289)"><g><path d="M 4.59375 0 L 4.59375 -31.515625 L 15.265625 -31.515625 C 17.640625 -31.515625 19.703125 -31.078125 21.453125 -30.203125 C 23.210938 -29.335938 24.570312 -28.117188 25.53125 -26.546875 C 26.488281 -24.972656 26.96875 -23.101562 26.96875 -20.9375 C 26.96875 -18.78125 26.488281 -16.910156 25.53125 -15.328125 C 24.570312 -13.753906 23.210938 -12.53125 21.453125 -11.65625 C 19.703125 -10.789062 17.640625 -10.359375 15.265625 -10.359375 L 8.5625 -10.359375 L 8.5625 0 Z M 8.5625 -14.046875 L 15.171875 -14.046875 C 20.335938 -14.046875 22.921875 -16.328125 22.921875 -20.890625 C 22.921875 -25.453125 20.335938 -27.734375 15.171875 -27.734375 L 8.5625 -27.734375 Z M 8.5625 -14.046875 "/></g></g></g><g fill="#3675c2" fill-opacity="1"><g transform="translate(85.630232, 48.571289)"><g><path d="M 18.90625 0.578125 C 15.726562 0.578125 12.90625 -0.117188 10.4375 -1.515625 C 7.976562 -2.910156 6.054688 -4.835938 4.671875 -7.296875 C 3.296875 -9.753906 2.609375 -12.578125 2.609375 -15.765625 C 2.609375 -18.972656 3.296875 -21.800781 4.671875 -24.25 C 6.054688 -26.695312 7.976562 -28.617188 10.4375 -30.015625 C 12.90625 -31.410156 15.726562 -32.109375 18.90625 -32.109375 C 22.125 -32.109375 24.957031 -31.410156 27.40625 -30.015625 C 29.851562 -28.617188 31.773438 -26.695312 33.171875 -24.25 C 34.566406 -21.800781 35.265625 -18.972656 35.265625 -15.765625 C 35.265625 -12.578125 34.566406 -9.753906 33.171875 -7.296875 C 31.773438 -4.835938 29.851562 -2.910156 27.40625 -1.515625 C 24.957031 -0.117188 22.125 0.578125 18.90625 0.578125 Z M 6.671875 -15.765625 C 6.671875 -13.328125 7.1875 -11.175781 8.21875 -9.3125 C 9.25 -7.457031 10.6875 -6.003906 12.53125 -4.953125 C 14.382812 -3.898438 16.507812 -3.375 18.90625 -3.375 C 21.34375 -3.375 23.472656 -3.898438 25.296875 -4.953125 C 27.128906 -6.003906 28.5625 -7.457031 29.59375 -9.3125 C 30.632812 -11.175781 31.15625 -13.328125 31.15625 -15.765625 C 31.15625 -18.222656 30.632812 -20.375 29.59375 -22.21875 C 28.5625 -24.070312 27.128906 -25.519531 25.296875 -26.5625 C 23.472656 -27.613281 21.34375 -28.140625 18.90625 -28.140625 C 16.507812 -28.140625 14.382812 -27.613281 12.53125 -26.5625 C 10.6875 -25.519531 9.25 -24.070312 8.21875 -22.21875 C 7.1875 -20.375 6.671875 -18.222656 6.671875 -15.765625 Z M 6.671875 -15.765625 "/></g></g></g><g fill="#3675c2" fill-opacity="1"><g transform="translate(123.430476, 48.571289)"><g><path d="M 4.59375 0 L 4.59375 -31.515625 L 16.609375 -31.515625 C 18.804688 -31.515625 20.710938 -31.101562 22.328125 -30.28125 C 23.953125 -29.457031 25.210938 -28.296875 26.109375 -26.796875 C 27.015625 -25.296875 27.46875 -23.492188 27.46875 -21.390625 C 27.46875 -18.835938 26.804688 -16.726562 25.484375 -15.0625 C 24.160156 -13.394531 22.34375 -12.273438 20.03125 -11.703125 L 27.96875 0 L 23.1875 0 L 15.484375 -11.296875 L 8.5625 -11.296875 L 8.5625 0 Z M 8.5625 -15.078125 L 16.171875 -15.078125 C 18.484375 -15.078125 20.269531 -15.625 21.53125 -16.71875 C 22.789062 -17.820312 23.421875 -19.378906 23.421875 -21.390625 C 23.421875 -23.398438 22.789062 -24.957031 21.53125 -26.0625 C 20.269531 -27.175781 18.484375 -27.734375 16.171875 -27.734375 L 8.5625 -27.734375 Z M 8.5625 -15.078125 "/></g></g></g><g fill="#3675c2" fill-opacity="1"><g transform="translate(154.075692, 48.571289)"><g><path d="M 12.203125 0 L 12.203125 -27.734375 L 1.53125 -27.734375 L 1.53125 -31.515625 L 26.796875 -31.515625 L 26.796875 -27.734375 L 16.171875 -27.734375 L 16.171875 0 Z M 12.203125 0 "/></g></g></g><g fill="#3675c2" fill-opacity="1"><g transform="translate(182.425909, 48.571289)"><g><path d="M 15.078125 0.578125 C 12.554688 0.578125 10.375 0.148438 8.53125 -0.703125 C 6.6875 -1.554688 5.257812 -2.753906 4.25 -4.296875 C 3.25 -5.847656 2.734375 -7.644531 2.703125 -9.6875 L 6.671875 -9.6875 C 6.722656 -7.675781 7.519531 -6.09375 9.0625 -4.9375 C 10.613281 -3.78125 12.617188 -3.203125 15.078125 -3.203125 C 17.304688 -3.203125 19.070312 -3.632812 20.375 -4.5 C 21.675781 -5.375 22.328125 -6.59375 22.328125 -8.15625 C 22.328125 -9.625 21.695312 -10.800781 20.4375 -11.6875 C 19.175781 -12.570312 17.125 -13.34375 14.28125 -14 C 10.40625 -14.9375 7.566406 -16.128906 5.765625 -17.578125 C 3.960938 -19.035156 3.0625 -20.984375 3.0625 -23.421875 C 3.0625 -26.085938 4.070312 -28.203125 6.09375 -29.765625 C 8.125 -31.328125 10.863281 -32.109375 14.3125 -32.109375 C 17.863281 -32.109375 20.664062 -31.222656 22.71875 -29.453125 C 24.769531 -27.679688 25.8125 -25.265625 25.84375 -22.203125 L 21.9375 -22.203125 C 21.90625 -24.085938 21.203125 -25.578125 19.828125 -26.671875 C 18.460938 -27.773438 16.625 -28.328125 14.3125 -28.328125 C 12.0625 -28.328125 10.296875 -27.882812 9.015625 -27 C 7.742188 -26.113281 7.109375 -24.921875 7.109375 -23.421875 C 7.109375 -22.128906 7.703125 -21.039062 8.890625 -20.15625 C 10.078125 -19.269531 12.203125 -18.453125 15.265625 -17.703125 C 19.285156 -16.710938 22.148438 -15.472656 23.859375 -13.984375 C 25.578125 -12.492188 26.4375 -10.59375 26.4375 -8.28125 C 26.4375 -5.550781 25.40625 -3.390625 23.34375 -1.796875 C 21.289062 -0.210938 18.535156 0.578125 15.078125 0.578125 Z M 15.078125 0.578125 "/></g></g></g><g fill="#3675c2" fill-opacity="1"><g transform="translate(211.541095, 48.571289)"><g/></g></g><g fill="#3675c2" fill-opacity="1"><g transform="translate(222.701189, 48.571289)"><g><path d="M 4.59375 0 L 4.59375 -31.515625 L 8.5625 -31.515625 L 8.5625 -3.78125 L 23.859375 -3.78125 L 23.859375 0 Z M 4.59375 0 "/></g></g></g><g fill="#3675c2" fill-opacity="1"><g transform="translate(247.94635, 48.571289)"><g><path d="M 12.203125 0 L 12.203125 -27.734375 L 1.53125 -27.734375 L 1.53125 -31.515625 L 26.796875 -31.515625 L 26.796875 -27.734375 L 16.171875 -27.734375 L 16.171875 0 Z M 12.203125 0 "/></g></g></g><g fill="#3675c2" fill-opacity="1"><g transform="translate(276.296567, 48.571289)"><g><path d="M 4.59375 0 L 4.59375 -31.515625 L 15.484375 -31.515625 C 18.734375 -31.515625 21.566406 -30.847656 23.984375 -29.515625 C 26.398438 -28.179688 28.28125 -26.332031 29.625 -23.96875 C 30.976562 -21.613281 31.65625 -18.878906 31.65625 -15.765625 C 31.65625 -12.671875 30.976562 -9.9375 29.625 -7.5625 C 28.28125 -5.1875 26.398438 -3.332031 23.984375 -2 C 21.566406 -0.664062 18.734375 0 15.484375 0 Z M 8.5625 -3.78125 L 15.484375 -3.78125 C 17.890625 -3.78125 20 -4.28125 21.8125 -5.28125 C 23.632812 -6.289062 25.054688 -7.695312 26.078125 -9.5 C 27.097656 -11.300781 27.609375 -13.390625 27.609375 -15.765625 C 27.609375 -18.160156 27.085938 -20.25 26.046875 -22.03125 C 25.015625 -23.820312 23.582031 -25.21875 21.75 -26.21875 C 19.914062 -27.226562 17.769531 -27.734375 15.3125 -27.734375 L 8.5625 -27.734375 Z M 8.5625 -3.78125 "/></g></g></g></g></g></svg>
